<?xml version="1.0" encoding="UTF-8"?>
<svg enable-background="new 0 0 48 48" version="1.1" viewBox="0 0 48 48" xml:space="preserve" xmlns="http://www.w3.org/2000/svg">


	<g transform="matrix(.95515 0 0 .95195 1.8706 -1.5435)" stroke="#000" stroke-width="1px">
		<path d="m4.8567 14.934 9.3491 27.642 6.8803-25.7 24.405-8.7825-8.3777-0.36425z" fill="#a9a9a9"/>
		<path d="m5.0995 14.934 15.946 2.0236" fill="none"/><path d="m21.329 17.12 0.76897 4.8162 22.826-8.8229 0.22235-4.5817" fill="none"/>
		<path d="m14.255 42.324 7.9235-20.55" fill="none"/>
	</g>
	<g transform="translate(-.48567 .080944)" fill="#f00" stroke-miterlimit="8" stroke-width="0">
		<path d="m17.832 40.392c0.15089-0.23528 0.33418-0.44743 0.49224-0.67752 0.22125-0.32206 0.42327-0.65711 0.64648-0.97782 0.33809-0.48579 0.68723-0.96384 1.0371-1.4412 1.2364-1.6871 1.4227-1.9069 2.7241-3.5955 1.2508-1.6119 2.5448-3.1901 3.8755-4.7365 0.30482-0.35422 0.61563-0.70324 0.92345-1.0549l-2.5276 1.0819c-0.21632 0.31266-0.42978 0.62732-0.64895 0.93799-1.0789 1.5293-2.1948 3.0326-3.3441 4.5097-0.48749 0.62042-0.96555 1.2484-1.4625 1.8612-1.5785 1.947-3.2287 3.8524-5.1137 5.5114z" style="paint-order:stroke fill markers"/><path d="m18.43 39.854c0.2235-0.23513 0.29254-0.31233 0.57818-0.57746 0.61729-0.57296 1.1592-1.0358 1.8155-1.5872 1.3262-1.1143 1.4087-1.1642 2.8105-2.2805 1.6229-1.2789 3.2998-2.4883 5.0088-3.6492 0.6544-0.44452 2.0953-1.3839 2.7926-1.8403 0 0-2.4071 0.94298-2.4071 0.94298-0.38028 0.26361-0.76203 0.52512-1.1408 0.79083-2.1196 1.4867-4.2068 3.0188-6.2816 4.5672-2.181 1.6804-4.3472 3.3814-6.5786 4.995z" style="paint-order:stroke fill markers"/><path d="m14.092 42.301c0.08704-0.05172 0.17302-0.10523 0.2611-0.15514 0.26448-0.14988 0.70732-0.37974 0.94489-0.50037 1.0865-0.5517 1.5479-0.78138 2.7113-1.3078 0.62117-0.28106 1.248-0.54945 1.872-0.82417 0.79132-0.31281 1.5759-0.64334 2.374-0.93844 1.5243-0.56364 3.2656-1.1087 4.8199-1.5688 1.5173-0.44912 4.2001-1.1919 5.7095-1.5864 0.89459-0.23381 1.7938-0.44964 2.6907-0.67445 2.1167-0.54496 4.2423-1.0542 6.366-1.5709l1.7435-1.3399c-0.66423 0.20258-1.3271 0.40982-1.9927 0.60774-2.1642 0.64354-2.7036 0.78124-4.9392 1.4009-0.92857 0.24902-1.855 0.50594-2.7857 0.74704-1.2871 0.33344-4.1252 1.0159-5.4444 1.3755-2.1874 0.59618-2.5802 0.75697-4.7061 1.4668-0.69279 0.23131-1.3853 0.46345-2.078 0.69518l-1.6359 0.63233c-0.42281 0.16839-0.84446 0.33975-1.2684 0.50517-0.28238 0.11017-0.56802 0.21183-0.85056 0.32156-0.47648 0.18504-0.3567 0.14356-0.74059 0.31598-0.05741 0.02578-0.11541 0.05022-0.17312 0.07533z" style="paint-order:stroke fill markers"/><path d="m16.682 40.75c-0.26208-0.18392-0.06165-0.05107-0.45168-0.27264-0.13515-0.07678-0.26616-0.161-0.40376-0.2333-0.25776-0.13544-0.52737-0.24805-0.7818-0.38964-0.78776-0.4384-1.2404-0.77002-1.9982-1.2821-0.36158-0.2606-0.72287-0.5216-1.0847-0.7818-0.39257-0.28229-0.7903-0.5575-1.1786-0.84568-1.3246-0.98316-2.5911-2.0436-3.8442-3.1153-0.56305-0.51405-0.76695-0.67084-1.2563-1.2217-0.14472-0.16291-0.27476-0.33829-0.41214-0.50743l-2.759 1.6852c0.17547 0.1529 0.34781 0.30945 0.52641 0.45869 0.49223 0.41131 0.92852 0.74052 1.4395 1.136 0.58653 0.4159 1.3028 0.923 1.8829 1.3379 0.72845 0.52097 1.5058 1.0732 2.2116 1.6229 0.37343 0.29083 0.73484 0.59679 1.1035 0.89364 0.34104 0.2746 0.68373 0.54714 1.0256 0.8207 0.59676 0.49969 1.1451 0.94036 1.7058 1.4757 0.1836 0.17531 0.34856 0.36926 0.52862 0.5482 0.18931 0.18813 0.41152 0.34619 0.5454 0.58393z" style="paint-order:stroke fill markers"/><path d="m15.743 40.297c-0.53086 0.08463-1.0709 0.01584-1.6011-0.04087-1.1315-0.12103-0.71015-0.06372-1.839-0.28677-1.8654-0.31582-3.7379-0.65544-5.5486-1.2989-0.28544-0.10143-0.56633-0.22062-0.8495-0.33093-0.24999-0.12004-0.49997-0.24008-0.74996-0.36012l-2.039 1.6574 0.81694 0.32762c0.30571 0.09843 0.60869 0.21012 0.91713 0.2953 0.3537 0.09768 1.8464 0.42242 2.1643 0.49578 1.1144 0.2572 2.2246 0.5396 3.3266 0.86578 0.29209 0.07461 0.58633 0.13794 0.87628 0.22384 0.25075 0.07428 0.49581 0.17418 0.74484 0.25641 0.31119 0.10275 0.58727 0.18243 0.8977 0.26829 0.08291 0.02293 0.16656 0.04203 0.24918 0.06647 0.04599 0.0136 0.09098 0.03173 0.13646 0.0476z" style="paint-order:stroke fill markers"/>
	</g>
</svg>
